<svg xmlns="http://www.w3.org/2000/svg" viewBox="0 0 320 160" shape-rendering="crispEdges">
  <rect width="320" height="160" fill="#33355f"/>
  <rect y="0" width="320" height="10" fill="#7772ba"/>
  <rect y="10" width="320" height="8" fill="#575394"/>
  <rect y="18" width="320" height="8" fill="#464476"/>
  <rect x="16" y="30" width="92" height="60" fill="#20284d"/>
  <rect x="24" y="38" width="76" height="44" fill="#2f6e8e"/>
  <rect x="30" y="44" width="20" height="12" fill="#b2e1df"/>
  <rect x="58" y="44" width="20" height="12" fill="#6f8fd4"/>
  <rect x="84" y="44" width="10" height="12" fill="#d9c771"/>
  <rect x="34" y="64" width="8" height="8" fill="#f2d86d"/>
  <rect x="48" y="60" width="8" height="8" fill="#95d8d0"/>
  <rect x="64" y="70" width="8" height="8" fill="#f2d86d"/>
  <rect x="88" y="62" width="6" height="6" fill="#f7eeb9"/>
  <rect x="122" y="32" width="74" height="8" fill="#4e4b83"/>
  <rect x="122" y="40" width="8" height="52" fill="#292b55"/>
  <rect x="188" y="40" width="8" height="52" fill="#292b55"/>
  <rect x="131" y="20" width="12" height="12" fill="#7bd0d4"/>
  <rect x="153" y="22" width="8" height="10" fill="#e8d16f"/>
  <rect x="172" y="20" width="12" height="12" fill="#9f8ee7"/>
  <rect x="132" y="55" width="20" height="22" fill="#a394ec"/>
  <rect x="157" y="58" width="20" height="19" fill="#6dc7c0"/>
  <rect x="182" y="64" width="8" height="13" fill="#e6bc66"/>
  <rect x="211" y="35" width="92" height="8" fill="#4d4a80"/>
  <rect x="211" y="43" width="8" height="60" fill="#282a52"/>
  <rect x="295" y="43" width="8" height="60" fill="#282a52"/>
  <rect x="219" y="22" width="18" height="13" fill="#6dccce"/>
  <rect x="246" y="25" width="8" height="10" fill="#f0d36b"/>
  <rect x="264" y="21" width="22" height="14" fill="#a695eb"/>
  <rect x="220" y="57" width="50" height="31" fill="#1b2448"/>
  <rect x="228" y="64" width="34" height="16" fill="#79d1cb"/>
  <rect x="235" y="69" width="7" height="7" fill="#f6e9a5"/>
  <rect x="248" y="69" width="7" height="7" fill="#887ce1"/>
  <rect x="275" y="60" width="12" height="28" fill="#c9a866"/>
  <rect x="278" y="54" width="6" height="6" fill="#f7e9a4"/>
  <rect y="104" width="320" height="56" fill="#23294c"/>
  <rect y="104" width="320" height="7" fill="#6a6796"/>
  <rect y="111" width="320" height="8" fill="#424770"/>
  <rect y="119" width="320" height="8" fill="#31385f"/>
  <rect y="127" width="320" height="8" fill="#262d51"/>
  <rect x="18" y="138" width="68" height="8" fill="#52597d"/>
  <rect x="104" y="146" width="64" height="8" fill="#52597d"/>
  <rect x="192" y="136" width="88" height="8" fill="#52597d"/>
  <rect x="122" y="96" width="62" height="8" fill="#8a5f62"/>
  <rect x="130" y="104" width="8" height="25" fill="#4c3e59"/>
  <rect x="166" y="104" width="8" height="25" fill="#4c3e59"/>
  <rect x="136" y="78" width="42" height="18" fill="#9de0dc"/>
  <rect x="143" y="70" width="28" height="8" fill="#c6f2de"/>
  <rect x="148" y="66" width="8" height="4" fill="#e9cf73"/>
  <rect x="160" y="60" width="8" height="6" fill="#e9cf73"/>
  <rect x="174" y="66" width="8" height="4" fill="#e9cf73"/>
  <rect x="228" y="94" width="8" height="10" fill="#78d1cc"/>
  <rect x="238" y="90" width="8" height="14" fill="#a497e6"/>
  <rect x="248" y="96" width="8" height="8" fill="#f0d56f"/>
  <rect x="286" y="116" width="8" height="8" fill="#f0d56f"/>
  <rect x="300" y="128" width="6" height="6" fill="#7bd0d4"/>
  <rect x="196" y="82" width="26" height="8" fill="#252a50"/>
  <rect x="192" y="90" width="34" height="22" fill="#e5b983"/>
  <rect x="199" y="96" width="12" height="6" fill="#9de0dc"/>
  <rect x="215" y="96" width="6" height="6" fill="#9de0dc"/>
  <rect x="194" y="112" width="32" height="20" fill="#806cc8"/>
  <rect x="188" y="116" width="8" height="14" fill="#806cc8"/>
  <rect x="226" y="116" width="8" height="14" fill="#806cc8"/>
  <rect x="198" y="132" width="10" height="18" fill="#384b79"/>
  <rect x="214" y="132" width="10" height="18" fill="#384b79"/>
  <rect x="186" y="108" width="8" height="8" fill="#e5b983"/>
  <rect x="226" y="108" width="8" height="8" fill="#e5b983"/>
  <rect x="196" y="94" width="26" height="4" fill="#d8f0e7"/>
  <rect x="198" y="92" width="6" height="2" fill="#d8f0e7"/>
  <rect x="214" y="92" width="6" height="2" fill="#d8f0e7"/>
  <g opacity=".9">
    <rect x="32" y="46" width="4" height="4" fill="#c6ffff"/>
    <rect x="44" y="50" width="3" height="3" fill="#f6db7a"/>
    <rect x="68" y="52" width="4" height="4" fill="#c6ffff"/>
    <rect x="34" y="73" width="4" height="3" fill="#6fb7c2"/>
    <rect x="48" y="74" width="10" height="3" fill="#6fb7c2"/>
    <rect x="132" y="52" width="5" height="3" fill="#f2d974"/>
    <rect x="144" y="52" width="8" height="3" fill="#f2d974"/>
    <rect x="164" y="50" width="4" height="3" fill="#b8a6ef"/>
    <rect x="174" y="52" width="8" height="3" fill="#f2d974"/>
    <rect x="226" y="50" width="8" height="3" fill="#a7ebe0"/>
    <rect x="238" y="50" width="12" height="3" fill="#a7ebe0"/>
    <rect x="256" y="54" width="4" height="3" fill="#f6da7a"/>
    <rect x="272" y="54" width="6" height="3" fill="#f6da7a"/>
    <rect x="198" y="96" width="4" height="4" fill="#fff0b0"/>
    <rect x="214" y="96" width="4" height="4" fill="#fff0b0"/>
    <rect x="198" y="134" width="4" height="11" fill="#526a9a"/>
    <rect x="214" y="134" width="4" height="11" fill="#526a9a"/>
    <rect x="238" y="114" width="5" height="3" fill="#e8d373"/>
    <rect x="250" y="114" width="5" height="3" fill="#83dfd4"/>
    <rect x="284" y="132" width="4" height="4" fill="#f5d878"/>
  </g>
</svg>
