<svg xmlns="http://www.w3.org/2000/svg" width="1360" height="1120" viewBox="0 0 680 560" preserveAspectRatio="none" shape-rendering="crispEdges">
  <rect x="48" y="86" width="44" height="236" fill="#273b4b"/>
  <rect x="56" y="76" width="28" height="10" fill="#35566a"/>
  <rect x="64" y="60" width="12" height="16" fill="#426d78"/>
  <rect x="44" y="132" width="10" height="46" fill="#527f7c"/>
  <rect x="28" y="154" width="18" height="16" fill="#6d9a7e"/>
  <rect x="82" y="112" width="18" height="22" fill="#5f8e76"/>
  <rect x="602" y="94" width="42" height="228" fill="#273b4b"/>
  <rect x="610" y="84" width="26" height="10" fill="#35566a"/>
  <rect x="618" y="66" width="10" height="18" fill="#426d78"/>
  <rect x="588" y="132" width="14" height="38" fill="#527f7c"/>
  <rect x="634" y="144" width="18" height="18" fill="#6d9a7e"/>
  <rect x="574" y="106" width="18" height="24" fill="#5f8e76"/>
  <rect x="92" y="294" width="34" height="12" fill="#a6c27a"/>
  <rect x="74" y="306" width="66" height="14" fill="#769e70"/>
  <rect x="546" y="294" width="42" height="12" fill="#a6c27a"/>
  <rect x="526" y="306" width="72" height="14" fill="#769e70"/>
  <rect x="105" y="82" width="470" height="386" fill="#352f3f"/>
  <rect x="119" y="96" width="442" height="366" fill="#845446"/>
  <polygon points="76,188 76,170 106,170 106,152 138,152 138,130 170,130 170,110 202,110 202,90 234,90 234,70 446,70 446,90 478,90 478,110 510,110 510,130 542,130 542,152 574,152 574,170 604,170 604,188" fill="#382f3c"/>
  <polygon points="92,178 92,166 122,166 122,146 154,146 154,126 186,126 186,106 218,106 218,86 430,86 430,106 462,106 462,126 494,126 494,146 526,146 526,166 556,166 556,178" fill="#c96e49"/>
  <rect x="122" y="138" width="434" height="8" fill="#df8552"/>
  <rect x="138" y="118" width="402" height="8" fill="#e4945c"/>
  <rect x="170" y="98" width="338" height="8" fill="#e9a265"/>
  <rect x="202" y="78" width="274" height="8" fill="#f1b16e"/>
  <rect x="228" y="58" width="216" height="12" fill="#f2c17a"/>
  <rect x="464" y="66" width="34" height="64" fill="#2e3646"/>
  <rect x="470" y="50" width="22" height="16" fill="#b85f48"/>
  <rect x="474" y="34" width="14" height="16" fill="#cf7451"/>
  <rect x="136" y="158" width="406" height="294" fill="#6a463f"/>
  <rect x="136" y="158" width="406" height="8" fill="#9d6349"/>
  <rect x="136" y="256" width="406" height="10" fill="#3f3540"/>
  <rect x="136" y="354" width="406" height="10" fill="#3f3540"/>
  <rect x="136" y="442" width="406" height="10" fill="#3f3540"/>
  <rect x="152" y="166" width="10" height="286" fill="#3f3540"/>
  <rect x="278" y="166" width="10" height="286" fill="#3f3540"/>
  <rect x="406" y="166" width="10" height="286" fill="#3f3540"/>
  <rect x="530" y="166" width="10" height="286" fill="#3f3540"/>
  <rect x="184" y="188" width="58" height="46" fill="#2d3948"/>
  <rect x="192" y="196" width="42" height="30" fill="#75cad0"/>
  <rect x="200" y="204" width="12" height="10" fill="#d1f3da"/>
  <rect x="218" y="204" width="8" height="10" fill="#f5d66f"/>
  <rect x="310" y="188" width="58" height="46" fill="#2d3948"/>
  <rect x="318" y="196" width="42" height="30" fill="#75cad0"/>
  <rect x="326" y="204" width="12" height="10" fill="#d1f3da"/>
  <rect x="344" y="204" width="8" height="10" fill="#f5d66f"/>
  <rect x="438" y="188" width="58" height="46" fill="#2d3948"/>
  <rect x="446" y="196" width="42" height="30" fill="#75cad0"/>
  <rect x="454" y="204" width="12" height="10" fill="#d1f3da"/>
  <rect x="472" y="204" width="8" height="10" fill="#f5d66f"/>
  <rect x="176" y="282" width="86" height="8" fill="#b97b54"/>
  <rect x="184" y="290" width="8" height="44" fill="#4c3b3e"/>
  <rect x="246" y="290" width="8" height="44" fill="#4c3b3e"/>
  <rect x="198" y="264" width="16" height="18" fill="#d1a85f"/>
  <rect x="224" y="270" width="18" height="12" fill="#85c8ad"/>
  <rect x="306" y="282" width="86" height="8" fill="#b97b54"/>
  <rect x="314" y="290" width="8" height="44" fill="#4c3b3e"/>
  <rect x="376" y="290" width="8" height="44" fill="#4c3b3e"/>
  <rect x="330" y="264" width="16" height="18" fill="#d1a85f"/>
  <rect x="356" y="270" width="18" height="12" fill="#85c8ad"/>
  <rect x="438" y="282" width="74" height="8" fill="#b97b54"/>
  <rect x="446" y="290" width="8" height="44" fill="#4c3b3e"/>
  <rect x="498" y="290" width="8" height="44" fill="#4c3b3e"/>
  <rect x="460" y="266" width="16" height="16" fill="#d1a85f"/>
  <rect x="482" y="270" width="18" height="12" fill="#85c8ad"/>
  <rect x="168" y="374" width="80" height="8" fill="#3c333d"/>
  <rect x="170" y="382" width="76" height="58" fill="#5c9ba3"/>
  <rect x="180" y="392" width="56" height="34" fill="#a6e4d3"/>
  <rect x="188" y="400" width="12" height="10" fill="#f4d66e"/>
  <rect x="208" y="400" width="12" height="10" fill="#d98170"/>
  <rect x="298" y="374" width="84" height="8" fill="#3c333d"/>
  <rect x="300" y="382" width="80" height="58" fill="#5c9ba3"/>
  <rect x="310" y="392" width="60" height="34" fill="#a6e4d3"/>
  <rect x="318" y="400" width="12" height="10" fill="#f4d66e"/>
  <rect x="338" y="400" width="12" height="10" fill="#d98170"/>
  <rect x="424" y="374" width="82" height="8" fill="#3c333d"/>
  <rect x="426" y="382" width="78" height="58" fill="#5c9ba3"/>
  <rect x="436" y="392" width="58" height="34" fill="#a6e4d3"/>
  <rect x="444" y="400" width="12" height="10" fill="#f4d66e"/>
  <rect x="464" y="400" width="12" height="10" fill="#d98170"/>
  <rect x="270" y="388" width="48" height="74" fill="#3d303d"/>
  <rect x="278" y="396" width="32" height="66" fill="#5b9ca4"/>
  <rect x="284" y="420" width="8" height="8" fill="#f5d66f"/>
  <rect x="122" y="458" width="434" height="14" fill="#2d303b"/>
  <rect x="92" y="472" width="496" height="18" fill="#3c3d48"/>
  <rect x="104" y="490" width="472" height="12" fill="#9b6a4e"/>
  <rect x="80" y="502" width="520" height="14" fill="#61704f"/>
  <rect x="44" y="516" width="592" height="12" fill="#789267"/>
  <rect x="24" y="528" width="632" height="12" fill="#4e6e60"/>
  <rect x="0" y="540" width="680" height="20" fill="#314e5b"/>
  <rect x="28" y="524" width="54" height="8" fill="#cb865f"/>
  <rect x="98" y="532" width="40" height="8" fill="#d3a16a"/>
  <rect x="544" y="524" width="56" height="8" fill="#cb865f"/>
  <rect x="610" y="534" width="32" height="6" fill="#d3a16a"/>
  <g opacity=".86">
    <rect x="218" y="78" width="22" height="3" fill="#ffe0a0"/>
    <rect x="252" y="78" width="14" height="3" fill="#c75e48"/>
    <rect x="278" y="78" width="24" height="3" fill="#ffe0a0"/>
    <rect x="316" y="78" width="20" height="3" fill="#c75e48"/>
    <rect x="352" y="78" width="24" height="3" fill="#ffe0a0"/>
    <rect x="394" y="78" width="18" height="3" fill="#c75e48"/>
    <rect x="430" y="78" width="16" height="3" fill="#ffe0a0"/>
    <rect x="196" y="98" width="18" height="3" fill="#ffe0a0"/>
    <rect x="226" y="98" width="26" height="3" fill="#b85847"/>
    <rect x="264" y="98" width="18" height="3" fill="#ffe0a0"/>
    <rect x="296" y="98" width="28" height="3" fill="#b85847"/>
    <rect x="338" y="98" width="20" height="3" fill="#ffe0a0"/>
    <rect x="372" y="98" width="26" height="3" fill="#b85847"/>
    <rect x="414" y="98" width="18" height="3" fill="#ffe0a0"/>
    <rect x="444" y="98" width="22" height="3" fill="#b85847"/>
    <rect x="160" y="118" width="22" height="3" fill="#ffe0a0"/>
    <rect x="194" y="118" width="16" height="3" fill="#b85847"/>
    <rect x="222" y="118" width="26" height="3" fill="#ffe0a0"/>
    <rect x="260" y="118" width="18" height="3" fill="#b85847"/>
    <rect x="292" y="118" width="25" height="3" fill="#ffe0a0"/>
    <rect x="330" y="118" width="18" height="3" fill="#b85847"/>
    <rect x="360" y="118" width="26" height="3" fill="#ffe0a0"/>
    <rect x="400" y="118" width="18" height="3" fill="#b85847"/>
    <rect x="430" y="118" width="24" height="3" fill="#ffe0a0"/>
    <rect x="470" y="118" width="16" height="3" fill="#b85847"/>
    <rect x="148" y="178" width="12" height="3" fill="#ad7051"/>
    <rect x="172" y="178" width="20" height="3" fill="#563d3d"/>
    <rect x="224" y="178" width="16" height="3" fill="#ad7051"/>
    <rect x="294" y="178" width="18" height="3" fill="#ad7051"/>
    <rect x="350" y="178" width="24" height="3" fill="#563d3d"/>
    <rect x="432" y="178" width="16" height="3" fill="#ad7051"/>
    <rect x="474" y="178" width="26" height="3" fill="#563d3d"/>
    <rect x="146" y="244" width="18" height="3" fill="#3b313c"/>
    <rect x="202" y="244" width="12" height="3" fill="#a2684d"/>
    <rect x="250" y="244" width="20" height="3" fill="#3b313c"/>
    <rect x="300" y="244" width="18" height="3" fill="#a2684d"/>
    <rect x="364" y="244" width="14" height="3" fill="#3b313c"/>
    <rect x="430" y="244" width="22" height="3" fill="#a2684d"/>
    <rect x="486" y="244" width="16" height="3" fill="#3b313c"/>
    <rect x="146" y="346" width="20" height="3" fill="#a2684d"/>
    <rect x="214" y="346" width="16" height="3" fill="#3b313c"/>
    <rect x="294" y="346" width="24" height="3" fill="#a2684d"/>
    <rect x="360" y="346" width="14" height="3" fill="#3b313c"/>
    <rect x="436" y="346" width="22" height="3" fill="#a2684d"/>
    <rect x="490" y="346" width="14" height="3" fill="#3b313c"/>
    <rect x="196" y="201" width="4" height="4" fill="#f7ffe7"/>
    <rect x="326" y="201" width="4" height="4" fill="#f7ffe7"/>
    <rect x="454" y="201" width="4" height="4" fill="#f7ffe7"/>
    <rect x="170" y="398" width="4" height="8" fill="#fff0bc"/>
    <rect x="292" y="398" width="4" height="8" fill="#fff0bc"/>
    <rect x="418" y="398" width="4" height="8" fill="#fff0bc"/>
    <rect x="94" y="302" width="4" height="12" fill="#c3e08a"/>
    <rect x="102" y="294" width="4" height="16" fill="#9cc47c"/>
    <rect x="568" y="296" width="4" height="14" fill="#c3e08a"/>
    <rect x="578" y="288" width="4" height="20" fill="#9cc47c"/>
    <rect x="24" y="520" width="10" height="4" fill="#f1c57b"/>
    <rect x="44" y="512" width="6" height="4" fill="#b7d38e"/>
    <rect x="626" y="516" width="10" height="4" fill="#f1c57b"/>
    <rect x="604" y="510" width="6" height="4" fill="#b7d38e"/>
    <rect x="274" y="532" width="18" height="3" fill="#78a49b"/>
    <rect x="300" y="536" width="12" height="3" fill="#78a49b"/>
    <rect x="338" y="530" width="20" height="3" fill="#78a49b"/>
  </g>
</svg>
