<svg xmlns="http://www.w3.org/2000/svg" width="2048" height="1280" viewBox="0 0 1024 640" preserveAspectRatio="none" shape-rendering="crispEdges">
  <rect width="1024" height="640" fill="#ef9a70"/>
  <rect width="1024" height="62" fill="#f6b777"/>
  <rect y="62" width="1024" height="54" fill="#eea36f"/>
  <rect y="116" width="1024" height="58" fill="#db8c6e"/>
  <rect y="174" width="1024" height="66" fill="#bd7d72"/>
  <rect y="240" width="1024" height="84" fill="#8d6b77"/>
  <rect x="64" y="28" width="180" height="6" fill="#ffd8a1"/>
  <rect x="290" y="44" width="120" height="6" fill="#ffd8a1"/>
  <rect x="520" y="26" width="196" height="6" fill="#ffd8a1"/>
  <rect x="800" y="58" width="132" height="6" fill="#ffd8a1"/>
  <rect x="372" y="82" width="72" height="5" fill="#ffd19a"/>
  <rect x="714" y="96" width="112" height="5" fill="#ffd19a"/>
  <rect x="150" y="114" width="92" height="5" fill="#ffd19a"/>
  <rect x="748" y="160" width="7" height="7" fill="#ffe2a7"/>
  <rect x="770" y="154" width="7" height="7" fill="#ffe2a7"/>
  <rect x="790" y="166" width="7" height="7" fill="#ffe2a7"/>
  <rect x="850" y="90" width="34" height="34" fill="#fbd16e"/>
  <rect x="842" y="98" width="50" height="18" fill="#fbd16e"/>
  <rect x="858" y="82" width="18" height="50" fill="#fbd16e"/>
  <rect x="864" y="104" width="8" height="8" fill="#fff2b7"/>
  <rect x="0" y="230" width="1024" height="34" fill="#6b637a"/>
  <polygon points="0,300 0,246 82,246 82,226 144,226 144,202 208,202 208,178 270,178 270,158 332,158 332,178 386,178 386,204 442,204 442,230 500,230 500,270 560,270 560,306" fill="#59637a"/>
  <polygon points="500,306 500,248 556,248 556,214 608,214 608,182 660,182 660,158 712,158 712,184 764,184 764,208 816,208 816,232 876,232 876,264 940,264 940,290 1024,290 1024,336" fill="#687388"/>
  <rect x="42" y="242" width="14" height="42" fill="#a9a19a"/>
  <rect x="62" y="236" width="8" height="48" fill="#9d9894"/>
  <rect x="678" y="190" width="12" height="52" fill="#9eb1aa"/>
  <rect x="698" y="204" width="8" height="38" fill="#9eb1aa"/>
  <rect x="924" y="226" width="16" height="34" fill="#a7afa7"/>
  <g>
    <rect x="20" y="176" width="28" height="148" fill="#263a45"/>
    <rect x="8" y="198" width="54" height="22" fill="#2f4c52"/>
    <rect x="0" y="224" width="72" height="24" fill="#35585b"/>
    <rect x="14" y="250" width="46" height="20" fill="#3d6862"/>
    <rect x="28" y="150" width="12" height="26" fill="#345751"/>
    <rect x="4" y="282" width="66" height="20" fill="#527b67"/>
    <rect x="82" y="196" width="26" height="130" fill="#2a3f48"/>
    <rect x="70" y="218" width="52" height="22" fill="#315452"/>
    <rect x="64" y="244" width="64" height="24" fill="#3c645d"/>
    <rect x="76" y="274" width="42" height="18" fill="#567c65"/>
  </g>
  <g>
    <rect x="922" y="170" width="34" height="158" fill="#263a45"/>
    <rect x="908" y="194" width="62" height="24" fill="#2f4c52"/>
    <rect x="898" y="224" width="82" height="24" fill="#35585b"/>
    <rect x="912" y="252" width="54" height="22" fill="#3d6862"/>
    <rect x="932" y="146" width="14" height="24" fill="#345751"/>
    <rect x="894" y="284" width="92" height="20" fill="#527b67"/>
    <rect x="986" y="210" width="28" height="122" fill="#2a3f48"/>
    <rect x="974" y="236" width="52" height="22" fill="#315452"/>
    <rect x="968" y="262" width="56" height="22" fill="#3c645d"/>
  </g>
  <rect x="34" y="340" width="190" height="130" fill="#2a2f3b"/>
  <rect x="48" y="354" width="162" height="116" fill="#7b4e43"/>
  <rect x="24" y="338" width="212" height="16" fill="#2c2d3a"/>
  <rect x="42" y="322" width="176" height="16" fill="#d0774e"/>
  <rect x="60" y="306" width="140" height="16" fill="#dd8754"/>
  <rect x="82" y="290" width="96" height="16" fill="#e79a62"/>
  <rect x="82" y="366" width="34" height="38" fill="#263747"/>
  <rect x="88" y="372" width="22" height="24" fill="#72ced0"/>
  <rect x="146" y="366" width="44" height="8" fill="#49373c"/>
  <rect x="150" y="374" width="8" height="48" fill="#49373c"/>
  <rect x="176" y="374" width="8" height="48" fill="#49373c"/>
  <rect x="154" y="386" width="14" height="10" fill="#ecc66e"/>
  <rect x="284" y="226" width="456" height="276" fill="#292b39"/>
  <rect x="300" y="242" width="424" height="244" fill="#754a43"/>
  <rect x="264" y="222" width="500" height="20" fill="#2c2d3a"/>
  <rect x="288" y="202" width="452" height="20" fill="#bd6449"/>
  <rect x="312" y="182" width="404" height="20" fill="#d6734d"/>
  <rect x="336" y="162" width="356" height="20" fill="#df8355"/>
  <rect x="360" y="142" width="308" height="20" fill="#e9975d"/>
  <rect x="392" y="122" width="244" height="20" fill="#f1ad6a"/>
  <rect x="424" y="102" width="180" height="20" fill="#f5c078"/>
  <rect x="636" y="128" width="34" height="90" fill="#2b3040"/>
  <rect x="642" y="110" width="22" height="18" fill="#b95746"/>
  <rect x="648" y="92" width="10" height="18" fill="#d36f4f"/>
  <g opacity=".9">
    <rect x="366" y="146" width="28" height="4" fill="#ffc879"/>
    <rect x="410" y="146" width="18" height="4" fill="#b65348"/>
    <rect x="442" y="146" width="26" height="4" fill="#ffc879"/>
    <rect x="482" y="146" width="18" height="4" fill="#b65348"/>
    <rect x="514" y="146" width="28" height="4" fill="#ffc879"/>
    <rect x="558" y="146" width="20" height="4" fill="#b65348"/>
    <rect x="330" y="166" width="24" height="4" fill="#ffc879"/>
    <rect x="366" y="166" width="20" height="4" fill="#b65348"/>
    <rect x="398" y="166" width="30" height="4" fill="#ffc879"/>
    <rect x="444" y="166" width="16" height="4" fill="#b65348"/>
    <rect x="476" y="166" width="28" height="4" fill="#ffc879"/>
    <rect x="520" y="166" width="20" height="4" fill="#b65348"/>
    <rect x="554" y="166" width="26" height="4" fill="#ffc879"/>
    <rect x="594" y="166" width="18" height="4" fill="#b65348"/>
    <rect x="294" y="206" width="28" height="4" fill="#ffc879"/>
    <rect x="336" y="206" width="18" height="4" fill="#b65348"/>
    <rect x="368" y="206" width="30" height="4" fill="#ffc879"/>
    <rect x="410" y="206" width="16" height="4" fill="#b65348"/>
    <rect x="444" y="206" width="28" height="4" fill="#ffc879"/>
    <rect x="486" y="206" width="18" height="4" fill="#b65348"/>
    <rect x="520" y="206" width="30" height="4" fill="#ffc879"/>
    <rect x="566" y="206" width="18" height="4" fill="#b65348"/>
    <rect x="608" y="206" width="26" height="4" fill="#ffc879"/>
    <rect x="654" y="206" width="20" height="4" fill="#b65348"/>
  </g>
  <rect x="300" y="254" width="424" height="10" fill="#4b3740"/>
  <rect x="300" y="346" width="424" height="10" fill="#3b303a"/>
  <rect x="300" y="430" width="424" height="10" fill="#3b303a"/>
  <rect x="322" y="242" width="10" height="244" fill="#3b303a"/>
  <rect x="454" y="242" width="10" height="244" fill="#3b303a"/>
  <rect x="586" y="242" width="10" height="244" fill="#3b303a"/>
  <rect x="714" y="242" width="10" height="244" fill="#3b303a"/>
  <rect x="350" y="272" width="52" height="42" fill="#253342"/>
  <rect x="358" y="280" width="36" height="26" fill="#7bd5d2"/>
  <rect x="366" y="288" width="10" height="8" fill="#d9f4d8"/>
  <rect x="382" y="288" width="8" height="8" fill="#f8d276"/>
  <rect x="486" y="272" width="52" height="42" fill="#253342"/>
  <rect x="494" y="280" width="36" height="26" fill="#7bd5d2"/>
  <rect x="502" y="288" width="10" height="8" fill="#d9f4d8"/>
  <rect x="518" y="288" width="8" height="8" fill="#f8d276"/>
  <rect x="620" y="272" width="52" height="42" fill="#253342"/>
  <rect x="628" y="280" width="36" height="26" fill="#7bd5d2"/>
  <rect x="636" y="288" width="10" height="8" fill="#d9f4d8"/>
  <rect x="652" y="288" width="8" height="8" fill="#f8d276"/>
  <rect x="344" y="368" width="92" height="8" fill="#b57955"/>
  <rect x="352" y="376" width="8" height="48" fill="#4a343c"/>
  <rect x="420" y="376" width="8" height="48" fill="#4a343c"/>
  <rect x="374" y="348" width="16" height="20" fill="#e1b262"/>
  <rect x="400" y="354" width="18" height="14" fill="#7ec5aa"/>
  <rect x="478" y="368" width="92" height="8" fill="#b57955"/>
  <rect x="486" y="376" width="8" height="48" fill="#4a343c"/>
  <rect x="554" y="376" width="8" height="48" fill="#4a343c"/>
  <rect x="508" y="348" width="16" height="20" fill="#e1b262"/>
  <rect x="534" y="354" width="18" height="14" fill="#7ec5aa"/>
  <rect x="612" y="368" width="92" height="8" fill="#b57955"/>
  <rect x="620" y="376" width="8" height="48" fill="#4a343c"/>
  <rect x="688" y="376" width="8" height="48" fill="#4a343c"/>
  <rect x="642" y="348" width="16" height="20" fill="#e1b262"/>
  <rect x="668" y="354" width="18" height="14" fill="#7ec5aa"/>
  <rect x="366" y="448" width="74" height="38" fill="#5b9da4"/>
  <rect x="376" y="456" width="54" height="22" fill="#a7e7d6"/>
  <rect x="386" y="462" width="10" height="8" fill="#f5d46e"/>
  <rect x="406" y="462" width="10" height="8" fill="#dc7b6d"/>
  <rect x="498" y="448" width="74" height="38" fill="#5b9da4"/>
  <rect x="508" y="456" width="54" height="22" fill="#a7e7d6"/>
  <rect x="518" y="462" width="10" height="8" fill="#f5d46e"/>
  <rect x="538" y="462" width="10" height="8" fill="#dc7b6d"/>
  <rect x="630" y="448" width="74" height="38" fill="#5b9da4"/>
  <rect x="640" y="456" width="54" height="22" fill="#a7e7d6"/>
  <rect x="650" y="462" width="10" height="8" fill="#f5d46e"/>
  <rect x="670" y="462" width="10" height="8" fill="#dc7b6d"/>
  <rect x="460" y="448" width="36" height="54" fill="#3e303b"/>
  <rect x="468" y="456" width="20" height="46" fill="#5f9da5"/>
  <rect x="474" y="476" width="6" height="6" fill="#f5d46e"/>
  <rect x="258" y="486" width="516" height="18" fill="#30313e"/>
  <rect x="226" y="504" width="580" height="14" fill="#ad754f"/>
  <rect x="194" y="518" width="644" height="18" fill="#6e8b64"/>
  <rect x="140" y="536" width="744" height="20" fill="#4e6f5d"/>
  <rect y="556" width="1024" height="84" fill="#2e5662"/>
  <rect y="556" width="1024" height="8" fill="#86b1a4"/>
  <rect y="588" width="1024" height="6" fill="#477e87"/>
  <rect y="620" width="1024" height="8" fill="#173e51"/>
  <rect x="120" y="540" width="64" height="8" fill="#c58d5e"/>
  <rect x="850" y="534" width="68" height="8" fill="#c58d5e"/>
  <rect x="48" y="550" width="42" height="12" fill="#bc744f"/>
  <rect x="940" y="548" width="48" height="12" fill="#bc744f"/>
  <rect x="212" y="566" width="78" height="4" fill="#a7d7c5"/>
  <rect x="346" y="574" width="106" height="4" fill="#a7d7c5"/>
  <rect x="584" y="566" width="88" height="4" fill="#a7d7c5"/>
  <rect x="752" y="578" width="122" height="4" fill="#a7d7c5"/>
  <g>
    <rect x="154" y="262" width="34" height="188" fill="#2b3d45"/>
    <rect x="142" y="288" width="60" height="22" fill="#3d5d5b"/>
    <rect x="132" y="316" width="82" height="26" fill="#527a67"/>
    <rect x="148" y="350" width="50" height="22" fill="#648968"/>
    <rect x="166" y="238" width="10" height="24" fill="#41645a"/>
    <rect x="826" y="258" width="34" height="190" fill="#2b3d45"/>
    <rect x="814" y="284" width="60" height="22" fill="#3d5d5b"/>
    <rect x="804" y="312" width="82" height="26" fill="#527a67"/>
    <rect x="820" y="348" width="50" height="22" fill="#648968"/>
    <rect x="838" y="234" width="10" height="24" fill="#41645a"/>
  </g>
  <rect x="16" y="536" width="34" height="12" fill="#7b5b52"/>
  <rect x="52" y="528" width="22" height="16" fill="#966a57"/>
  <rect x="930" y="528" width="26" height="16" fill="#966a57"/>
  <rect x="962" y="536" width="42" height="12" fill="#7b5b52"/>
</svg>
